<svg viewBox="0 0 800 260" xmlns="http://www.w3.org/2000/svg">
  <defs>
    <linearGradient id="bgM" x1="0" y1="0" x2="1" y2="1">
      <stop offset="0%" stop-color="#09111E"/>
      <stop offset="100%" stop-color="#150e22"/>
    </linearGradient>
  </defs>
  <rect width="800" height="260" fill="url(#bgM)"/>
  <g transform="translate(300,20) scale(9)" fill="none" stroke="#00E5FF" stroke-width="0.6" stroke-linecap="round" stroke-linejoin="round" opacity="0.9">
    <path d="M12 5a3.5 3.5 0 0 0-3.5 3.5C7 8.5 5 10 5 12a3.5 3.5 0 0 0 3.5 3.5V19h7v-3.5A3.5 3.5 0 0 0 19 12c0-2-2-3.5-3.5-3.5A3.5 3.5 0 0 0 12 5zM12 5v14M8.5 12h7"/>
  </g>
  <g stroke="#38BDF8" stroke-width="1" opacity="0.5">
    <line x1="60" y1="60" x2="220" y2="90"/>
    <line x1="220" y1="90" x2="230" y2="180"/>
    <line x1="580" y1="80" x2="720" y2="60"/>
    <line x1="580" y1="80" x2="600" y2="190"/>
    <line x1="60" y1="200" x2="200" y2="220"/>
    <line x1="600" y1="220" x2="740" y2="200"/>
  </g>
  <g fill="#00E5FF" opacity="0.85">
    <circle cx="60" cy="60" r="3.5"/>
    <circle cx="220" cy="90" r="3.5"/>
    <circle cx="230" cy="180" r="3.5"/>
    <circle cx="580" cy="80" r="3.5"/>
    <circle cx="720" cy="60" r="3.5"/>
    <circle cx="600" cy="190" r="3.5"/>
    <circle cx="60" cy="200" r="3.5"/>
    <circle cx="200" cy="220" r="3.5"/>
    <circle cx="740" cy="200" r="3.5"/>
  </g>
</svg>
