<svg viewBox="0 0 800 260" xmlns="http://www.w3.org/2000/svg">
  <defs>
    <linearGradient id="bgB" x1="0" y1="0" x2="1" y2="1">
      <stop offset="0%" stop-color="#09111E"/>
      <stop offset="100%" stop-color="#0e1b2c"/>
    </linearGradient>
    <linearGradient id="pulseGrad" x1="0" y1="0" x2="1" y2="0">
      <stop offset="0%" stop-color="#38BDF8"/>
      <stop offset="100%" stop-color="#00E5FF"/>
    </linearGradient>
  </defs>
  <rect width="800" height="260" fill="url(#bgB)"/>
  <g opacity="0.25" stroke="#1B2F48">
    <circle cx="400" cy="130" r="90" fill="none"/>
    <circle cx="400" cy="130" r="140" fill="none"/>
  </g>
  <path d="M0 150 L140 150 L170 90 L200 190 L230 60 L260 150 L340 150 L365 110 L390 170 L415 150 L800 150"
        fill="none" stroke="url(#pulseGrad)" stroke-width="3.5" stroke-linecap="round" stroke-linejoin="round">
    <animate attributeName="stroke-dasharray" values="0,1400;1400,0" dur="2.6s" repeatCount="indefinite"/>
  </path>
  <g transform="translate(560,60) scale(4)" fill="none" stroke="#38BDF8" stroke-width="1.2" stroke-linecap="round" stroke-linejoin="round" opacity="0.85">
    <path d="M4 18v-4l2-4 3-1 2-5h3l1 3 3 1v3l-2 2v5M8 18v-3M16 18v-3M6 9l-2-2M18 10l2 2"/>
  </g>
  <g fill="#00E5FF">
    <circle cx="230" cy="60" r="4"><animate attributeName="r" values="4;6;4" dur="1.6s" repeatCount="indefinite"/></circle>
  </g>
</svg>
